<svg aria-hidden="true" style="position: absolute; width: 0; height: 0; overflow: hidden;" version="1.1" xmlns="http://www.w3.org/2000/svg" xmlns:xlink="http://www.w3.org/1999/xlink">
<defs>
<symbol id="icon-phone" viewBox="0 0 32 32">
<path d="M22 20c-2 2-2 4-4 4s-4-2-6-4-4-4-4-6 2-2 4-4-4-8-6-8-6 6-6 6c0 4 4.109 12.109 8 16s12 8 16 8c0 0 6-4 6-6s-6-8-8-6z"></path>
</symbol>
<symbol id="icon-mail2" viewBox="0 0 32 32">
<path d="M26.667 0h-21.333c-2.934 0-5.334 2.4-5.334 5.334v21.332c0 2.936 2.4 5.334 5.334 5.334h21.333c2.934 0 5.333-2.398 5.333-5.334v-21.332c0-2.934-2.399-5.334-5.333-5.334zM26.667 4c0.25 0 0.486 0.073 0.688 0.198l-11.355 9.388-11.355-9.387c0.202-0.125 0.439-0.198 0.689-0.198h21.333zM5.334 28c-0.060 0-0.119-0.005-0.178-0.013l7.051-9.78-0.914-0.914-7.293 7.293v-19.098l12 14.512 12-14.512v19.098l-7.293-7.293-0.914 0.914 7.051 9.78c-0.058 0.008-0.117 0.013-0.177 0.013h-21.333z"></path>
</symbol>

<symbol id="icon-cart" viewBox="0 0 32 32">
<path d="M16.048 14.853h7.111v3.761h-7.111v-3.761z"></path>
<path d="M14.126 8.511h-5.789l0.431 4.42h5.358z"></path>
<path d="M14.126 18.614v-3.761h-5.171l0.366 3.761z"></path>
<path d="M14.126 2.828h-6.342l0.366 3.761h5.976z"></path>
<path d="M25.081 18.614h3.844l0.733-3.761h-4.576z"></path>
<path d="M16.048 2.828h7.111v3.761h-7.111v-3.761z"></path>
<path d="M16.048 8.511h7.111v4.42h-7.111v-4.42z"></path>
<path d="M25.081 6.589h6.186l0.733-3.761h-6.919z"></path>
<path d="M25.081 12.932h4.951l0.861-4.42h-5.812z"></path>
<path d="M5.786 1.867h-5.786v1.922h4.016l1.538 18.669h23.371v-1.922h-21.601z"></path>
<path d="M11.532 27.202c0 1.619-1.312 2.931-2.931 2.931s-2.931-1.312-2.931-2.931c0-1.619 1.312-2.931 2.931-2.931s2.931 1.312 2.931 2.931z"></path>
<path d="M28.348 27.202c0 1.619-1.312 2.931-2.931 2.931s-2.931-1.312-2.931-2.931c0-1.619 1.312-2.931 2.931-2.931s2.931 1.312 2.931 2.931z"></path>
</symbol>
</defs>
</svg>
